# File created by Blade
# Date/Time:  Tue Sep 30 19:31:19 2014
#---------------------------------------------------------
:version 1.10
:name HOM
:units
  mass 1.0
  length 1.000000
  angle deg
:documentation
     Acclaim Skeleton File
:root
   axis xyz
   order TX TY TZ RX RY RZ
   position 0.000000 0.000000 0.000000
   orientation 0 0 0
:bonedata
   begin
      id 1
      name Spine_dum
      direction 0.000000 1.000000 0.000000
      length 3.241213
      axis 0.0 0.0 0.0 xyz
   end
   begin
      id 2
      name LeftUpLeg_dum
      direction 1.000000 0.000000 0.000000
      length 3.434019
      axis 0.0 0.0 0.0 xyz
   end
   begin
      id 3
      name RightUpLeg_dum
      direction -1.000000 0.000000 0.000000
      length 3.434019
      axis 0.0 0.0 0.0 xyz
   end
   begin
      id 4
      name Spine
      direction 0.000000 1.000000 0.000000
      length 0.000000
      axis 0.0 0.0 0.0 xyz
      dof rx ry rz
   end
   begin
      id 5
      name Spine_dum1
      direction 0.000000 1.000000 0.000000
      length 18.382958
      axis 0.0 0.0 0.0 xyz
   end
   begin
      id 6
      name Spine_dum2
      direction 0.000000 1.000000 0.000000
      length 12.828261
      axis 0.0 0.0 0.0 xyz
   end
   begin
      id 7
      name Spine_dum3
      direction 0.000000 1.000000 0.000000
      length 12.828261
      axis 0.0 0.0 0.0 xyz
   end
   begin
      id 8
      name Head
      direction 0.000000 1.000000 0.000000
      length 4.527550
      axis 0.0 0.0 0.0 xyz
      dof rx ry rz
   end
   begin
      id 9
      name LeftShoulder
      direction 1.000000 0.000000 0.000000
      length 7.748055
      axis 0.0 0.0 -90.0 xyz
      dof rx ry rz
   end
   begin
      id 10
      name LeftArm
      direction 1.000000 0.000000 0.000000
      length 10.635614
      axis 0.0 0.0 -90.0 xyz
      dof rx ry rz
   end
   begin
      id 11
      name LeftForeArm
      direction 1.000000 0.000000 0.000000
      length 8.346755
      axis 0.0 0.0 -90.0 xyz
      dof ry rz rx
   end
   begin
      id 12
      name LeftHand
      direction 0.000000 0.000000 0.000000
      length 0.000000
      axis 0.0 0.0 -90.0 xyz
      dof rx ry rz
   end
   begin
      id 13
      name LeftHand_dum1
      direction 0.000000 0.000000 0.000000
      length 0.000000
      axis 0.0 0.0 -90.0 xyz
   end
   begin
      id 14
      name LeftHand_dum2
      direction 1.000000 0.000000 0.000000
      length 3.937000
      axis 0.0 0.0 -90.0 xyz
   end
   begin
      id 15
      name LeftHandThumb1
      direction 0.000000 0.000000 1.000000
      length 3.937000
      axis 0.0 0.0 -90.0 xyz
      dof rx rz ry
   end
   begin
      id 16
      name RightShoulder
      direction -1.000000 0.000000 0.000000
      length 7.748055
      axis 0.0 0.0 90.0 xyz
      dof rx ry rz
   end
   begin
      id 17
      name RightArm
      direction -1.000000 0.000000 0.000000
      length 10.635614
      axis 0.0 0.0 90.0 xyz
      dof rx ry rz
   end
   begin
      id 18
      name RightForeArm
      direction -1.000000 0.000000 0.000000
      length 8.346755
      axis 0.0 0.0 90.0 xyz
      dof ry rz rx
   end
   begin
      id 19
      name RightHand
      direction 0.000000 0.000000 0.000000
      length 0.000000
      axis 0.0 0.0 90.0 xyz
      dof rx ry rz
   end
   begin
      id 20
      name RightHand_dum1
      direction 0.000000 0.000000 0.000000
      length 0.000000
      axis 0.0 0.0 90.0 xyz
   end
   begin
      id 21
      name RightHand_dum2
      direction -1.000000 0.000000 0.000000
      length 3.937000
      axis 0.0 0.0 90.0 xyz
   end
   begin
      id 22
      name RightHandThumb1
      direction 0.000000 0.000000 1.000000
      length 3.937000
      axis 0.0 0.0 90.0 xyz
      dof rx rz ry
   end
   begin
      id 23
      name LeftUpLeg
      direction 0.000000 -1.000000 0.000000
      length 15.713025
      axis 0.0 0.0 0.0 xyz
      dof rx ry rz
   end
   begin
      id 24
      name LeftLeg
      direction 0.000000 -1.000000 0.000000
      length 14.435119
      axis 0.0 0.0 0.0 xyz
      dof rx ry rz
   end
   begin
      id 25
      name LeftFoot
      direction 0.000000 -0.258819 0.965926
      length 4.938895
      axis 15.0 0.0 0.0 xyz
      dof rx ry rz
   end
   begin
      id 26
      name LeftToeBase
      direction 0.000000 0.000000 1.000000
      length 2.952750
      axis 0.0 0.0 0.0 xyz
      dof rx ry rz
   end
   begin
      id 27
      name RightUpLeg
      direction 0.000000 -1.000000 0.000000
      length 15.713025
      axis 0.0 0.0 0.0 xyz
      dof rx ry rz
   end
   begin
      id 28
      name RightLeg
      direction 0.000000 -1.000000 0.000000
      length 14.435119
      axis 0.0 0.0 0.0 xyz
      dof rx ry rz
   end
   begin
      id 29
      name RightFoot
      direction 0.000000 -0.258819 0.965926
      length 4.938895
      axis 15.0 0.0 0.0 xyz
      dof rx ry rz
   end
   begin
      id 30
      name RightToeBase
      direction 0.000000 0.000000 1.000000
      length 2.952750
      axis 0.0 0.0 0.0 xyz
      dof rx ry rz
   end
:hierarchy
   begin
      root Spine_dum LeftUpLeg_dum RightUpLeg_dum
      Spine_dum Spine
      LeftUpLeg_dum LeftUpLeg
      RightUpLeg_dum RightUpLeg
      Spine Spine_dum1 Spine_dum2 Spine_dum3
      Spine_dum1 Head
      Spine_dum2 LeftShoulder
      Spine_dum3 RightShoulder
      LeftShoulder LeftArm
      LeftArm LeftForeArm
      LeftForeArm LeftHand
      LeftHand LeftHand_dum1 LeftHand_dum2
      LeftHand_dum1 LeftHandThumb1
      RightShoulder RightArm
      RightArm RightForeArm
      RightForeArm RightHand
      RightHand RightHand_dum1 RightHand_dum2
      RightHand_dum1 RightHandThumb1
      LeftUpLeg LeftLeg
      LeftLeg LeftFoot
      LeftFoot LeftToeBase
      RightUpLeg RightLeg
      RightLeg RightFoot
      RightFoot RightToeBase
   end

# File created by Blade
# Date/Time:  Thu Sep 25 17:54:10 2014
# Frame Rate: 120.000 fps
#------------------------------------------------------
:FULLY-SPECIFIED
:DEGREES
1015
root 0.615361 32.592475 -5.234588 25.441410 3.939087 0.350511
Spine -29.596995 -8.733510 4.374293
Head 28.472362 17.435948 0.503021
LeftShoulder -21.993705 22.248918 52.320635
LeftArm 198.855570 -29.973890 -129.708221
LeftForeArm -33.994923 -0.000000 104.505532
LeftHand -14.412847 -0.000000 -1.000695
LeftHandThumb1 -26.253704 0.000000 33.147579
RightShoulder -32.273461 -33.316841 -43.451017
RightArm 97.828129 70.377324 124.379765
RightForeArm 79.714745 -0.000000 117.720921
RightHand 8.965609 -0.000000 13.831815
RightHandThumb1 -24.326973 -0.000000 -32.862282
LeftUpLeg -17.531079 2.671195 -0.461206
LeftLeg -2.078697 -0.000000 0.000000
LeftFoot -4.694643 -3.391640 -2.036389
LeftToeBase 3.389673 -0.000000 -0.000000
RightUpLeg -17.032733 -9.890983 3.364817
RightLeg -2.406309 -0.000000 0.000000
RightFoot -8.321622 -1.904376 12.489936
RightToeBase 15.580199 -0.000000 -0.000000
1016
root 0.623329 32.592406 -5.227055 25.447393 3.986990 0.344619
Spine -29.656666 -8.861883 4.499565
Head 28.463640 17.812479 0.895659
LeftShoulder -21.927438 22.101637 52.493808
LeftArm 198.940512 -30.042204 -129.314803
LeftForeArm -34.410895 0.000000 105.071006
LeftHand -14.143223 -0.000000 -0.770434
LeftHandThumb1 -26.253704 0.000000 33.147579
RightShoulder -32.406155 -33.556982 -43.031233
RightArm 97.439161 70.068673 124.273444
RightForeArm 79.576074 -0.000000 118.083838
RightHand 9.067671 -0.000000 13.599149
RightHandThumb1 -24.326973 -0.000000 -32.862282
LeftUpLeg -17.532975 2.639481 -0.448445
LeftLeg -2.068712 -0.000000 0.000000
LeftFoot -4.711685 -3.430660 -2.082697
LeftToeBase 3.414760 -0.000000 -0.000000
RightUpLeg -17.014382 -9.921291 3.375363
RightLeg -2.424551 -0.000000 0.000000
RightFoot -8.307474 -1.941194 12.476858
RightToeBase 15.587453 -0.000000 -0.000000
1017
root 0.629611 32.589221 -5.219983 25.418661 4.062487 0.341162
Spine -29.674854 -9.045995 4.625245
Head 28.436365 18.161692 1.249018
LeftShoulder -21.925987 22.005735 52.672824
LeftArm 199.015406 -30.063820 -128.956929
LeftForeArm -34.473164 -0.000000 105.709011
LeftHand -13.973883 -0.000000 -0.640116
LeftHandThumb1 -26.253704 0.000000 33.147579
RightShoulder -32.467352 -33.742992 -42.676811
RightArm 97.013787 69.824947 124.201178
RightForeArm 79.568831 -0.000000 118.453752
RightHand 8.985314 0.000000 13.384006
RightHandThumb1 -24.326973 -0.000000 -32.862282
LeftUpLeg -17.504263 2.575940 -0.421976
LeftLeg -2.052325 -0.000000 0.000000
LeftFoot -4.754850 -3.434118 -2.035611
LeftToeBase 3.417605 -0.000000 -0.000000
RightUpLeg -16.956523 -9.977749 3.387419
RightLeg -2.445296 -0.000000 0.000000
RightFoot -8.327314 -1.947989 12.466838
RightToeBase 15.556125 -0.000000 -0.000000
1018
root 0.637672 32.586116 -5.212447 25.368632 4.134695 0.364756
Spine -29.665506 -9.227771 4.700570
Head 28.436277 18.476528 1.685600
LeftShoulder -21.963599 22.080414 52.757075
LeftArm 199.291191 -29.966624 -128.700722
LeftForeArm -34.298492 -0.000000 106.299297
LeftHand -13.676847 -0.000000 -0.599609
LeftHandThumb1 -26.253704 0.000000 33.147579
RightShoulder -32.555412 -33.998891 -42.269648
RightArm 96.779270 69.530439 124.341092
RightForeArm 79.548883 0.000000 118.811162
RightHand 9.049319 -0.000000 13.229207
RightHandThumb1 -24.326973 -0.000000 -32.862282
LeftUpLeg -17.455223 2.522936 -0.431036
LeftLeg -2.030465 -0.000000 0.000000
LeftFoot -4.785016 -3.460662 -2.036761
LeftToeBase 3.410100 -0.000000 -0.000000
RightUpLeg -16.891848 -10.093403 3.380041
RightLeg -2.430089 -0.000000 0.000000
RightFoot -8.367232 -1.889159 12.484816
RightToeBase 15.510189 -0.000000 -0.000000
